<?xml version="1.0" encoding="utf-8"?>
<!-- Generator: Adobe Illustrator 22.1.0, SVG Export Plug-In . SVG Version: 6.00 Build 0)  -->
<svg version="1.1" id="Layer_1" xmlns="http://www.w3.org/2000/svg" xmlns:xlink="http://www.w3.org/1999/xlink" x="0px" y="0px"
	 viewBox="0 0 48 48" style="enable-background:new 0 0 48 48;" xml:space="preserve">
<style type="text/css">
	.st0{fill:#2D80A6;}
	.st1{fill:#FFFFFF;}
</style>
<g>
	<rect x="-0.3" y="-0.1" class="st0" width="48" height="48"/>
	<g>
		<path class="st1" d="M32.9,8.9H14.5c-3.2,0-5.8,2.6-5.8,5.8v6.1v12.3c0,3.2,2.6,5.8,5.8,5.8h18.4c3.2,0,5.8-2.6,5.8-5.8V20.8v-6.1
			C38.7,11.5,36.1,8.9,32.9,8.9z M34.6,12.4l0.7,0V13v4.4l-5.1,0l0-5.1L34.6,12.4z M19.4,20.8c1-1.3,2.5-2.2,4.3-2.2
			c1.8,0,3.3,0.9,4.3,2.2c0.6,0.9,1,1.9,1,3.1c0,2.9-2.4,5.3-5.3,5.3c-2.9,0-5.3-2.4-5.3-5.3C18.4,22.8,18.8,21.7,19.4,20.8z
			 M35.8,33.1c0,1.6-1.3,2.9-2.9,2.9H14.5c-1.6,0-2.9-1.3-2.9-2.9V20.8h4.5c-0.4,1-0.6,2-0.6,3.1c0,4.5,3.7,8.2,8.2,8.2
			c4.5,0,8.2-3.7,8.2-8.2c0-1.1-0.2-2.1-0.6-3.1h4.5V33.1z"/>
	</g>
</g>
</svg>
