<?xml version="1.0" encoding="utf-8"?>
<!-- Generator: Adobe Illustrator 22.1.0, SVG Export Plug-In . SVG Version: 6.00 Build 0)  -->
<svg version="1.1" id="Layer_1" xmlns="http://www.w3.org/2000/svg" xmlns:xlink="http://www.w3.org/1999/xlink" x="0px" y="0px"
	 viewBox="0 0 1394 270.8" style="enable-background:new 0 0 1394 270.8;" xml:space="preserve">
<style type="text/css">
	.st0{display:none;}
	.st1{fill:none;stroke:#ED1C24;stroke-width:3;stroke-miterlimit:10;}
	.st2{fill:none;}
	.st3{font-family:'CourierNewPSMT';}
	.st4{font-size:106px;}
	.st5{letter-spacing:4;}
	.st6{fill:none;stroke:#FFFFFF;stroke-miterlimit:10;}
	.st7{fill:#E41E25;}
	.st8{font-family:'OpenSans';}
	.st9{font-size:62.8423px;}
	.st10{fill:#E51837;}
	.st11{font-family:'OpenSans-Italic';}
	.st12{enable-background:new    ;}
	.st13{font-family:'CourierNewPS-BoldItalicMT';}
</style>
<g id="Layer_1_1_" class="st0">
	
		<image style="display:inline;overflow:visible;enable-background:new    ;" width="504" height="504" xlink:href="EF84E5B7CE0764C4.png"  transform="matrix(0.6342 0 0 0.6342 358.262 -22.541)">
	</image>
</g>
<g id="Layer_2_1_">
	<path d="M521.2,6.8L579,52.5L448,68.1C448,68.1,470.7,25.1,521.2,6.8z"/>
	<path d="M530.3,3.9c0,0,46.7-13.5,95,10l7.3,73.4"/>
	<path d="M633.3,17.9c0,0,42.5,23.7,59.7,74.5l-47,56.8"/>
	<path d="M434.7,171.7c0,0-14.3-46.5,8.5-95.1l73.2-8.5"/>
	<path d="M499.1,253.3c0,0-43.2-22.3-62.1-72.6l45.2-58.3"/>
	<path d="M601,266.5c0,0-46.5,14.2-95.1-8.7l-8.3-73.3"/>
	<path d="M682.1,202.1c0,0-22.4,43.1-72.8,61.8l-58.1-45.4"/>
	<path d="M695.8,97.5c0,0,14.8,46.3-7.3,95.2l-73.1,9.3"/>
	
		<ellipse transform="matrix(0.7071 -0.7071 0.7071 0.7071 70.7596 439.8287)" class="st1" cx="566.3" cy="134.5" rx="71.6" ry="71.6"/>
</g>
<g id="Layer_3">
	<rect y="28.9" class="st2" width="513.5" height="102.8"/>
	<text transform="matrix(1 0 0 1 -3.387451e-03 93.8287)" class="st3 st4 st5">Studio</text>
	<text transform="matrix(1 0 0 1 -3.387451e-03 93.8287)" class="st6 st3 st4 st5">Studio</text>
	<rect y="150.5" class="st2" width="513.5" height="102.8"/>
	<text transform="matrix(1 0 0 1 -3.387451e-03 215.4765)" class="st7 st3 st4 st5">AKIRA</text>
</g>
<g id="Layer_4">
</g>
<text transform="matrix(1 0 0 1 774.8885 134.5001)" class="st8 st9">We </text>
<text transform="matrix(1 0 0 1 888.9885 134.5001)" class="st10 st11 st9">don’t take</text>
<text transform="matrix(1 0 0 1 1141.1885 134.5002)" class="st12"><tspan x="0" y="0" class="st13 st9"> </tspan><tspan x="37.7" y="0" class="st8 st9">photos </tspan></text>
<text transform="matrix(1 0 0 1 774.8885 184.8001)" class="st8 st9">We </text>
<text transform="matrix(1 0 0 1 888.9885 184.8001)" class="st10 st11 st9">create</text>
<text transform="matrix(1 0 0 1 1041.0885 184.7999)" class="st12"><tspan x="0" y="0" class="st13 st9"> </tspan><tspan x="37.7" y="0" class="st8 st9">photos.</tspan></text>
</svg>
