<?xml version="1.0" encoding="utf-8"?>
<!-- Generator: Adobe Illustrator 22.1.0, SVG Export Plug-In . SVG Version: 6.00 Build 0)  -->
<svg version="1.1" id="Layer_1" xmlns="http://www.w3.org/2000/svg" xmlns:xlink="http://www.w3.org/1999/xlink" x="0px" y="0px"
	 viewBox="0 0 1651.2 595.3" style="enable-background:new 0 0 1651.2 595.3;" xml:space="preserve">
<style type="text/css">
	.st0{display:none;}
	.st1{fill:none;stroke:#ED1C24;stroke-width:3;stroke-miterlimit:10;}
	.st2{fill:none;}
	.st3{font-family:'CourierNewPSMT';}
	.st4{font-size:106px;}
	.st5{letter-spacing:4;}
	.st6{fill:none;stroke:#FFFFFF;stroke-miterlimit:10;}
	.st7{fill:#E41E25;}
	.st8{font-family:'OpenSans';}
	.st9{font-size:62.8423px;}
	.st10{fill:#E51837;}
	.st11{font-family:'OpenSans-Italic';}
	.st12{enable-background:new    ;}
	.st13{font-family:'CourierNewPS-BoldItalicMT';}
</style>
<g id="Layer_1_1_" class="st0">
	
		<image style="display:inline;overflow:visible;enable-background:new    ;" width="504" height="504" xlink:href="9279CE224EF399E4.png"  transform="matrix(0.6342 0 0 0.6342 426.362 122)">
	</image>
</g>
<g id="Layer_2_1_">
	<path d="M589.3,151.3l57.8,45.7l-131,15.6C516.1,212.6,538.8,169.6,589.3,151.3z"/>
	<path d="M598.4,148.4c0,0,46.7-13.5,95,10l7.3,73.4"/>
	<path d="M701.4,162.4c0,0,42.5,23.7,59.7,74.5l-47,56.8"/>
	<path d="M502.8,316.2c0,0-14.3-46.5,8.5-95.1l73.2-8.5"/>
	<path d="M567.2,397.8c0,0-43.2-22.3-62.1-72.6l45.2-58.3"/>
	<path d="M669.1,411c0,0-46.5,14.2-95.1-8.7l-8.3-73.3"/>
	<path d="M750.2,346.6c0,0-22.4,43.1-72.8,61.8L619.3,363"/>
	<path d="M763.9,242c0,0,14.8,46.3-7.3,95.2l-73.1,9.3"/>
	<circle class="st1" cx="634.4" cy="279" r="71.6"/>
</g>
<g id="Layer_3">
	<rect x="68.1" y="173.4" class="st2" width="513.5" height="102.8"/>
	<text transform="matrix(1 0 0 1 68.0966 238.3697)" class="st3 st4 st5">Studio</text>
	<text transform="matrix(1 0 0 1 68.0966 238.3697)" class="st6 st3 st4 st5">Studio</text>
	<rect x="68.1" y="295" class="st2" width="513.5" height="102.8"/>
	<text transform="matrix(1 0 0 1 68.0966 360.0175)" class="st7 st3 st4 st5">AKIRA</text>
</g>
<g id="Layer_4">
</g>
<text transform="matrix(1 0 0 1 833.8885 266.9)" class="st8 st9">We </text>
<text transform="matrix(1 0 0 1 947.9885 266.9)" class="st10 st11 st9">don’t take</text>
<text transform="matrix(1 0 0 1 1200.1885 266.9001)" class="st12"><tspan x="0" y="0" class="st13 st9"> </tspan><tspan x="37.7" y="0" class="st8 st9">photos </tspan></text>
<text transform="matrix(1 0 0 1 833.8885 317.2)" class="st8 st9">We </text>
<text transform="matrix(1 0 0 1 947.9885 317.2)" class="st10 st11 st9">create</text>
<text transform="matrix(1 0 0 1 1100.0885 317.1998)" class="st12"><tspan x="0" y="0" class="st13 st9"> </tspan><tspan x="37.7" y="0" class="st8 st9">photos.</tspan></text>
</svg>
