<?xml version="1.0" encoding="utf-8"?>
<!-- Generator: Adobe Illustrator 22.1.0, SVG Export Plug-In . SVG Version: 6.00 Build 0)  -->
<svg version="1.1" id="Layer_1" xmlns="http://www.w3.org/2000/svg" xmlns:xlink="http://www.w3.org/1999/xlink" x="0px" y="0px"
	 viewBox="0 0 48 48" style="enable-background:new 0 0 48 48;" xml:space="preserve">
<style type="text/css">
	.st0{fill:#00ABE3;}
	.st1{fill:#FFFFFF;}
</style>
<g>
	<rect x="-0.3" y="-0.1" class="st0" width="48" height="48"/>
	<g>
		<path class="st1" d="M37.9,12.4c-1.2,0.7-2.5,1.2-3.9,1.5c-1.1-1.2-2.7-1.9-4.5-1.9c-3.4,0-6.2,2.7-6.2,6.1c0,0.5,0.1,0.9,0.2,1.4
			c-5.1-0.3-9.7-2.7-12.7-6.3c-0.5,0.9-0.8,1.9-0.8,3c0,2.1,1.1,4,2.7,5c-1,0-2-0.3-2.8-0.8c0,0,0,0.1,0,0.1c0,2.9,2.1,5.4,4.9,5.9
			c-0.5,0.1-1.1,0.2-1.6,0.2c-0.4,0-0.8,0-1.2-0.1c0.8,2.4,3.1,4.2,5.8,4.2c-2.1,1.6-4.8,2.6-7.6,2.6c-0.5,0-1,0-1.5-0.1
			c2.7,1.7,6,2.7,9.4,2.7c11.3,0,17.5-9.2,17.5-17.2c0-0.3,0-0.5,0-0.8c1.2-0.9,2.2-1.9,3.1-3.1c-1.1,0.5-2.3,0.8-3.5,1
			C36.4,15,37.4,13.8,37.9,12.4z"/>
	</g>
</g>
</svg>
