<?xml version="1.0" encoding="utf-8"?>
<!-- Generator: Adobe Illustrator 22.1.0, SVG Export Plug-In . SVG Version: 6.00 Build 0)  -->
<svg version="1.1" id="Layer_1" xmlns="http://www.w3.org/2000/svg" xmlns:xlink="http://www.w3.org/1999/xlink" x="0px" y="0px"
	 viewBox="0 0 48 48" style="enable-background:new 0 0 48 48;" xml:space="preserve">
<style type="text/css">
	.st0{fill:#FF4D3F;}
	.st1{fill:#FFFFFF;}
</style>
<g>
	<rect x="-0.3" y="-0.1" class="st0" width="48" height="48"/>
	<g>
		<path class="st1" d="M31.7,29.1c-0.2,0-0.4,0.1-0.5,0.2C31.1,29.5,31,29.7,31,30v0.8h1.3V30c0-0.3-0.1-0.6-0.2-0.7
			C32.1,29.2,31.9,29.1,31.7,29.1z"/>
		<g>
			<path class="st1" d="M26.5,29.1c-0.1,0-0.2,0-0.3,0.1c-0.1,0-0.2,0.1-0.3,0.2v4.8c0.1,0.1,0.2,0.2,0.4,0.3
				c0.1,0.1,0.2,0.1,0.4,0.1c0.2,0,0.3-0.1,0.4-0.2c0.1-0.1,0.1-0.3,0.1-0.5v-4c0-0.3-0.1-0.5-0.2-0.6
				C26.8,29.1,26.7,29.1,26.5,29.1z"/>
			<g>
				<path class="st1" d="M33.2,22.9h-19c-3,0-5.5,2.8-5.5,5.9v4.5c0,3.1,2.5,5.6,5.5,5.6h19c3,0,5.5-2.5,5.5-5.6v-4.5
					C38.7,25.7,36.2,22.9,33.2,22.9z M18.2,26.7h-1.8v9h-1.7v-9h-1.8v-1.5h5.2V26.7z M23.2,35.7h-1.5v-0.9c-0.3,0.3-0.6,0.6-0.9,0.7
					c-0.3,0.2-0.6,0.2-0.9,0.2c-0.4,0-0.6-0.1-0.8-0.3c-0.2-0.2-0.3-0.6-0.3-1v-6.5h1.5v6c0,0.2,0,0.3,0.1,0.4
					c0.1,0.1,0.2,0.1,0.3,0.1c0.1,0,0.3-0.1,0.4-0.2c0.2-0.1,0.3-0.2,0.5-0.4v-5.9h1.5V35.7z M28.7,34.1c0,0.5-0.1,1-0.4,1.3
					c-0.2,0.3-0.6,0.4-1,0.4c-0.3,0-0.6-0.1-0.8-0.2c-0.2-0.1-0.4-0.3-0.6-0.5v0.6h-1.5V25.2h1.5v3.4c0.2-0.2,0.4-0.4,0.7-0.5
					c0.2-0.1,0.5-0.2,0.7-0.2c0.5,0,0.8,0.2,1.1,0.5c0.3,0.3,0.4,0.8,0.4,1.5V34.1z M33.9,32H31v1.5c0,0.4,0,0.7,0.1,0.9
					c0.1,0.2,0.3,0.2,0.5,0.2c0.3,0,0.4-0.1,0.5-0.2c0.1-0.1,0.2-0.4,0.2-0.9v-0.4h1.6v0.4c0,0.8-0.2,1.4-0.6,1.8
					c-0.4,0.4-0.9,0.6-1.7,0.6c-0.7,0-1.2-0.2-1.6-0.6c-0.4-0.4-0.6-1-0.6-1.8V30c0-0.7,0.2-1.2,0.6-1.6c0.4-0.4,1-0.6,1.7-0.6
					c0.7,0,1.2,0.2,1.6,0.6c0.4,0.4,0.6,1,0.6,1.7V32z"/>
				<polygon class="st1" points="14.4,8.9 16.7,15.9 16.7,20.5 18.6,20.5 18.6,15.7 20.8,8.9 18.9,8.9 17.7,13.5 17.6,13.5 
					16.3,8.9 				"/>
				<path class="st1" d="M21.7,12.3c-0.5,0.4-0.7,0.9-0.7,1.6v4.4c0,0.7,0.2,1.3,0.7,1.7c0.5,0.4,1,0.6,1.8,0.6
					c0.8,0,1.4-0.2,1.8-0.6c0.4-0.4,0.7-1,0.7-1.7V14c0-0.7-0.2-1.2-0.7-1.6c-0.5-0.4-1-0.6-1.7-0.6C22.7,11.7,22.1,11.9,21.7,12.3z
					 M24.2,13.8v4.7c0,0.2-0.1,0.4-0.2,0.5c-0.1,0.1-0.3,0.2-0.6,0.2c-0.2,0-0.4-0.1-0.5-0.2c-0.1-0.1-0.2-0.3-0.2-0.5v-4.7
					c0-0.2,0.1-0.3,0.2-0.5c0.1-0.1,0.3-0.2,0.5-0.2c0.2,0,0.4,0.1,0.5,0.2C24.1,13.5,24.2,13.7,24.2,13.8z"/>
				<path class="st1" d="M32.2,20.5V12h-1.7v6.5c-0.2,0.2-0.3,0.3-0.5,0.5c-0.2,0.1-0.4,0.2-0.5,0.2c-0.2,0-0.3,0-0.3-0.1
					c-0.1-0.1-0.1-0.2-0.1-0.4V12h-1.7v7.1c0,0.5,0.1,0.9,0.3,1.1c0.2,0.3,0.5,0.4,0.9,0.4c0.3,0,0.7-0.1,1-0.3
					c0.3-0.2,0.7-0.4,1-0.8v0.9H32.2z"/>
			</g>
		</g>
	</g>
</g>
</svg>
